<?xml version="1.0" encoding="UTF-8"?>
<svg width="120" height="120" viewBox="0 0 120 120" fill="none" xmlns="http://www.w3.org/2000/svg">
  <!-- Cloud body -->
  <path d="M95 65C95 78.8071 83.8071 90 70 90H40C26.1929 90 15 78.8071 15 65C15 51.1929 26.1929 40 40 40C40.7682 40 41.5259 40.0383 42.2707 40.1125C44.8958 30.4917 53.6108 23.5 64 23.5C76.4264 23.5 86.5 33.5736 86.5 46C86.5 47.2869 86.3949 48.5513 86.1935 49.7849C91.2704 51.9988 95 57.9453 95 65Z" fill="#A78BFA"/>
  <!-- Cookie spots -->
  <circle cx="35" cy="55" r="5" fill="#8B5CF6"/>
  <circle cx="50" cy="70" r="6" fill="#8B5CF6"/>
  <circle cx="70" cy="60" r="7" fill="#8B5CF6"/>
  <circle cx="60" cy="45" r="5" fill="#8B5CF6"/>
  <circle cx="80" cy="75" r="4" fill="#8B5CF6"/>
  <!-- Eyes -->
  <circle cx="45" cy="60" r="4" fill="white"/>
  <circle cx="45" cy="60" r="2" fill="#1E293B"/>
  <circle cx="65" cy="55" r="4" fill="white"/>
  <circle cx="65" cy="55" r="2" fill="#1E293B"/>
  <!-- Smile -->
  <path d="M50 70C53 73 57 73 60 70" stroke="#1E293B" stroke-width="2" stroke-linecap="round"/>
</svg>
